<?xml version="1.0" encoding="UTF-8" standalone="no"?>
<!DOCTYPE svg PUBLIC "-//W3C//DTD SVG 1.1//EN"
 "http://www.w3.org/Graphics/SVG/1.1/DTD/svg11.dtd">
<!-- Generated by graphviz version 12.2.0 (20241103.1931)
 -->
<!-- Title: G Pages: 1 -->
<svg width="1252pt" height="903pt"
 viewBox="0.00 0.00 1252.24 902.76" xmlns="http://www.w3.org/2000/svg" xmlns:xlink="http://www.w3.org/1999/xlink">
<g id="graph0" class="graph" transform="scale(1 1) rotate(0) translate(4 898.76)">
<title>G</title><style>.edge>path:hover{stroke-width:8}</style>
<polygon fill="white" stroke="none" points="-4,4 -4,-898.76 1248.24,-898.76 1248.24,4 -4,4"/>
<!-- config -->
<g id="node1" class="node">
<title>config</title><style>.edge>path:hover{stroke-width:8}</style>
<ellipse fill="#f91010" stroke="black" cx="821.93" cy="-876.76" rx="27" ry="18"/>
<text text-anchor="middle" x="821.93" y="-873.26" font-family="Helvetica,sans-Serif" font-size="10.00" fill="#ffffff">config</text>
</g>
<!-- load_constants -->
<g id="node2" class="node">
<title>load_constants</title><style>.edge>path:hover{stroke-width:8}</style>
<ellipse fill="#b5d926" stroke="black" cx="744.93" cy="-763.14" rx="49.31" ry="18"/>
<text text-anchor="middle" x="744.93" y="-759.64" font-family="Helvetica,sans-Serif" font-size="10.00" fill="#000000">load_constants</text>
</g>
<!-- config&#45;&gt;load_constants -->
<g id="edge1" class="edge">
<title>config&#45;&gt;load_constants</title><style>.edge>path:hover{stroke-width:8}</style>
<path fill="none" stroke="black" d="M821.93,-821.76C822.85,-803.08 808.22,-789.72 791.47,-780.59"/>
<polygon fill="#f91010" stroke="black" points="793.35,-777.61 782.83,-776.36 790.28,-783.9 793.35,-777.61"/>
</g>
<!-- main -->
<g id="node3" class="node">
<title>main</title><style>.edge>path:hover{stroke-width:8}</style>
<polygon fill="blue" stroke="black" points="1170.93,-293.63 1116.93,-293.63 1116.93,-257.63 1170.93,-257.63 1170.93,-293.63"/>
<text text-anchor="middle" x="1143.93" y="-272.13" font-family="Helvetica,sans-Serif" font-size="10.00" fill="white">main</text>
</g>
<!-- config&#45;&gt;main -->
<g id="edge2" class="edge">
<title>config&#45;&gt;main</title><style>.edge>path:hover{stroke-width:8}</style>
<path fill="none" stroke="black" d="M1198.93,-351.25C1195.67,-332.52 1183.71,-315.19 1171.77,-301.95"/>
<polygon fill="#f91010" stroke="black" points="1174.52,-299.76 1165.07,-294.96 1169.47,-304.6 1174.52,-299.76"/>
</g>
<!-- main_py -->
<g id="node4" class="node">
<title>main_py</title><style>.edge>path:hover{stroke-width:8}</style>
<ellipse fill="#4b8b65" stroke="black" cx="100.93" cy="-18" rx="30.37" ry="18"/>
<text text-anchor="middle" x="100.93" y="-14.5" font-family="Helvetica,sans-Serif" font-size="10.00" fill="#ffffff">main.py</text>
</g>
<!-- config&#45;&gt;main_py -->
<g id="edge3" class="edge">
<title>config&#45;&gt;main_py</title><style>.edge>path:hover{stroke-width:8}</style>
<path fill="none" stroke="black" d="M821.93,-821.76C824.97,-759.74 746.22,-804.23 686.93,-785.76 557.16,-745.36 480.58,-791.55 398.93,-682.88"/>
<path fill="none" stroke="black" d="M398.93,-680.88C308.54,-575.69 219.93,-563.95 219.93,-425.25 219.93,-425.25 219.93,-425.25 219.93,-351.25 219.93,-219.16 57.61,-266.57 5.93,-145 -0.33,-130.27 -3.16,-122.17 5.93,-109 31.59,-71.84 130.68,-106.97 100.93,-73"/>
<path fill="none" stroke="black" d="M820.82,-858.51C820.43,-848.11 820.41,-834.63 821.93,-822.76"/>
<path fill="none" stroke="black" d="M100.93,-72C95.03,-65.27 93.61,-55.99 94.13,-47.08"/>
<polygon fill="#f91010" stroke="black" points="97.58,-47.71 95.49,-37.32 90.64,-46.74 97.58,-47.71"/>
</g>
<!-- tools_bash -->
<g id="node7" class="node">
<title>tools_bash</title><style>.edge>path:hover{stroke-width:8}</style>
<polygon fill="blue" stroke="black" points="488.43,-623.25 427.43,-623.25 427.43,-587.25 488.43,-587.25 488.43,-623.25"/>
<text text-anchor="middle" x="457.93" y="-601.75" font-family="Helvetica,sans-Serif" font-size="10.00" fill="white">tools.bash</text>
</g>
<!-- config&#45;&gt;tools_bash -->
<g id="edge4" class="edge">
<title>config&#45;&gt;tools_bash</title><style>.edge>path:hover{stroke-width:8}</style>
<path fill="none" stroke="black" d="M398.93,-680.88C388.18,-663.06 402.31,-644.7 419.44,-630.65"/>
<polygon fill="#f91010" stroke="black" points="421.5,-633.48 427.34,-624.64 417.26,-627.9 421.5,-633.48"/>
</g>
<!-- tools_edit -->
<g id="node10" class="node">
<title>tools_edit</title><style>.edge>path:hover{stroke-width:8}</style>
<polygon fill="blue" stroke="black" points="761.81,-145 706.06,-145 706.06,-109 761.81,-109 761.81,-145"/>
<text text-anchor="middle" x="733.93" y="-123.5" font-family="Helvetica,sans-Serif" font-size="10.00" fill="white">tools.edit</text>
</g>
<!-- config&#45;&gt;tools_edit -->
<g id="edge5" class="edge">
<title>config&#45;&gt;tools_edit</title><style>.edge>path:hover{stroke-width:8}</style>
<path fill="none" stroke="black" d="M821.93,-821.76C823.18,-796.18 828.14,-788.99 821.93,-764.14"/>
<path fill="none" stroke="black" d="M821.93,-762.14C803.26,-687.36 745.93,-683.33 745.93,-606.25 745.93,-606.25 745.93,-606.25 745.93,-478.25 745.93,-350.51 652.07,-325.86 673.93,-200"/>
</g>
<!-- tools_envsetup -->
<g id="node11" class="node">
<title>tools_envsetup</title><style>.edge>path:hover{stroke-width:8}</style>
<polygon fill="blue" stroke="black" points="208.81,-145 129.06,-145 129.06,-109 208.81,-109 208.81,-145"/>
<text text-anchor="middle" x="168.93" y="-123.5" font-family="Helvetica,sans-Serif" font-size="10.00" fill="white">tools.envsetup</text>
</g>
<!-- config&#45;&gt;tools_envsetup -->
<g id="edge6" class="edge">
<title>config&#45;&gt;tools_envsetup</title><style>.edge>path:hover{stroke-width:8}</style>
<path fill="none" stroke="black" d="M398.93,-680.88C335.64,-576.01 295.93,-547.74 295.93,-425.25 295.93,-425.25 295.93,-425.25 295.93,-351.25 295.93,-306.3 292.07,-293.19 271.93,-253 252.53,-214.26 219.17,-176.87 195.68,-153.24"/>
<polygon fill="#f91010" stroke="black" points="198.17,-150.78 188.6,-146.25 193.26,-155.76 198.17,-150.78"/>
</g>
<!-- tools_write_code -->
<g id="node17" class="node">
<title>tools_write_code</title><style>.edge>path:hover{stroke-width:8}</style>
<polygon fill="blue" stroke="black" points="843.56,-145 780.31,-145 780.31,-109 843.56,-109 843.56,-145"/>
<text text-anchor="middle" x="811.93" y="-129.5" font-family="Helvetica,sans-Serif" font-size="10.00" fill="white">tools.</text>
<text text-anchor="middle" x="811.93" y="-117.5" font-family="Helvetica,sans-Serif" font-size="10.00" fill="white">write_code</text>
</g>
<!-- config&#45;&gt;tools_write_code -->
<g id="edge7" class="edge">
<title>config&#45;&gt;tools_write_code</title><style>.edge>path:hover{stroke-width:8}</style>
<path fill="none" stroke="black" d="M821.93,-821.76C825.43,-750.25 1093.18,-819.21 1138.93,-764.14"/>
<path fill="none" stroke="black" d="M1198.93,-351.25C1191.31,-307.44 1210.77,-285.05 1179.93,-253 1108.09,-178.35 1016.53,-281.79 952.93,-200"/>
<path fill="none" stroke="black" d="M1198.93,-478.25C1194.74,-422.86 1209.99,-407.7 1198.93,-353.25"/>
<path fill="none" stroke="black" d="M1138.93,-762.14C1166.7,-728.71 1079.63,-743.25 1059.93,-704.51 1050.82,-686.58 1053.44,-678.29 1059.93,-659.25 1092.57,-563.59 1206.41,-580.05 1198.93,-479.25"/>
</g>
<!-- utils_agent_display -->
<g id="node19" class="node">
<title>utils_agent_display</title><style>.edge>path:hover{stroke-width:8}</style>
<ellipse fill="#bd19e6" stroke="black" cx="903.93" cy="-763.14" rx="53.74" ry="22.63"/>
<text text-anchor="middle" x="903.93" y="-765.64" font-family="Helvetica,sans-Serif" font-size="10.00" fill="#ffffff">utils.</text>
<text text-anchor="middle" x="903.93" y="-753.64" font-family="Helvetica,sans-Serif" font-size="10.00" fill="#ffffff">agent_display</text>
</g>
<!-- config&#45;&gt;utils_agent_display -->
<g id="edge8" class="edge">
<title>config&#45;&gt;utils_agent_display</title><style>.edge>path:hover{stroke-width:8}</style>
<path fill="none" stroke="black" d="M821.93,-821.76C822.8,-804.06 835.96,-791.32 851.49,-782.4"/>
<polygon fill="#f91010" stroke="black" points="852.73,-785.7 860.03,-778.02 849.54,-779.47 852.73,-785.7"/>
</g>
<!-- utils_agent_display_web -->
<g id="node20" class="node">
<title>utils_agent_display_web</title><style>.edge>path:hover{stroke-width:8}</style>
<ellipse fill="#9246a4" stroke="black" cx="1138.93" cy="-681.88" rx="70.18" ry="22.63"/>
<text text-anchor="middle" x="1138.93" y="-684.38" font-family="Helvetica,sans-Serif" font-size="10.00" fill="#ffffff">utils.</text>
<text text-anchor="middle" x="1138.93" y="-672.38" font-family="Helvetica,sans-Serif" font-size="10.00" fill="#ffffff">agent_display_web</text>
</g>
<!-- config&#45;&gt;utils_agent_display_web -->
<g id="edge9" class="edge">
<title>config&#45;&gt;utils_agent_display_web</title><style>.edge>path:hover{stroke-width:8}</style>
<path fill="none" stroke="black" d="M1138.93,-762.14C1149.47,-749.45 1150.14,-731.26 1147.87,-715.51"/>
<polygon fill="#f91010" stroke="black" points="1151.38,-715.24 1146.08,-706.07 1144.51,-716.54 1151.38,-715.24"/>
</g>
<!-- utils_agent_display_web_with_prompt -->
<g id="node21" class="node">
<title>utils_agent_display_web_with_prompt</title><style>.edge>path:hover{stroke-width:8}</style>
<polygon fill="blue" stroke="black" points="1123.81,-145 966.06,-145 966.06,-109 1123.81,-109 1123.81,-145"/>
<text text-anchor="middle" x="1044.93" y="-129.5" font-family="Helvetica,sans-Serif" font-size="10.00" fill="white">utils.</text>
<text text-anchor="middle" x="1044.93" y="-117.5" font-family="Helvetica,sans-Serif" font-size="10.00" fill="white">agent_display_web_with_prompt</text>
</g>
<!-- config&#45;&gt;utils_agent_display_web_with_prompt -->
<g id="edge10" class="edge">
<title>config&#45;&gt;utils_agent_display_web_with_prompt</title><style>.edge>path:hover{stroke-width:8}</style>
<path fill="none" stroke="black" d="M1138.93,-762.14C1167.79,-729.64 1194.63,-741.2 1217.93,-704.51 1241.78,-666.96 1223.13,-648.54 1236.93,-606.25"/>
</g>
<!-- utils_file_logger -->
<g id="node23" class="node">
<title>utils_file_logger</title><style>.edge>path:hover{stroke-width:8}</style>
<ellipse fill="#a640c0" stroke="black" cx="881.93" cy="-275.63" rx="42.6" ry="22.63"/>
<text text-anchor="middle" x="881.93" y="-278.13" font-family="Helvetica,sans-Serif" font-size="10.00" fill="#ffffff">utils.</text>
<text text-anchor="middle" x="881.93" y="-266.13" font-family="Helvetica,sans-Serif" font-size="10.00" fill="#ffffff">file_logger</text>
</g>
<!-- config&#45;&gt;utils_file_logger -->
<g id="edge11" class="edge">
<title>config&#45;&gt;utils_file_logger</title><style>.edge>path:hover{stroke-width:8}</style>
<path fill="none" stroke="black" d="M821.93,-762.14C784.52,-593.82 844.18,-387.13 870.48,-308.78"/>
<polygon fill="#f91010" stroke="black" points="873.69,-310.2 873.61,-299.6 867.07,-307.94 873.69,-310.2"/>
</g>
<!-- utils_output_manager -->
<g id="node24" class="node">
<title>utils_output_manager</title><style>.edge>path:hover{stroke-width:8}</style>
<polygon fill="blue" stroke="black" points="1017.81,-442.25 932.06,-442.25 932.06,-406.25 1017.81,-406.25 1017.81,-442.25"/>
<text text-anchor="middle" x="974.93" y="-426.75" font-family="Helvetica,sans-Serif" font-size="10.00" fill="white">utils.</text>
<text text-anchor="middle" x="974.93" y="-414.75" font-family="Helvetica,sans-Serif" font-size="10.00" fill="white">output_manager</text>
</g>
<!-- config&#45;&gt;utils_output_manager -->
<g id="edge12" class="edge">
<title>config&#45;&gt;utils_output_manager</title><style>.edge>path:hover{stroke-width:8}</style>
<path fill="none" stroke="black" d="M1198.93,-478.25C1196.33,-443.81 1095.1,-431.72 1029.63,-427.5"/>
<polygon fill="#f91010" stroke="black" points="1029.95,-424.01 1019.76,-426.91 1029.54,-431 1029.95,-424.01"/>
</g>
<!-- load_constants&#45;&gt;tools_bash -->
<g id="edge13" class="edge">
<title>load_constants&#45;&gt;tools_bash</title><style>.edge>path:hover{stroke-width:8}</style>
<path fill="none" stroke="black" d="M487.93,-680.88C473.92,-669.44 466.4,-650.47 462.4,-634.52"/>
<polygon fill="#b5d926" stroke="black" points="465.89,-634.11 460.38,-625.07 459.05,-635.58 465.89,-634.11"/>
</g>
<!-- tools_collection -->
<g id="node8" class="node">
<title>tools_collection</title><style>.edge>path:hover{stroke-width:8}</style>
<polygon fill="blue" stroke="black" points="72.56,-145 15.31,-145 15.31,-109 72.56,-109 72.56,-145"/>
<text text-anchor="middle" x="43.93" y="-129.5" font-family="Helvetica,sans-Serif" font-size="10.00" fill="white">tools.</text>
<text text-anchor="middle" x="43.93" y="-117.5" font-family="Helvetica,sans-Serif" font-size="10.00" fill="white">collection</text>
</g>
<!-- load_constants&#45;&gt;tools_collection -->
<g id="edge14" class="edge">
<title>load_constants&#45;&gt;tools_collection</title><style>.edge>path:hover{stroke-width:8}</style>
<path fill="none" stroke="black" d="M697.26,-758.17C641.52,-751.3 549.11,-732.72 487.93,-682.88"/>
<path fill="none" stroke="black" d="M487.93,-680.88C369.45,-584.35 257.93,-578.09 257.93,-425.25 257.93,-425.25 257.93,-425.25 257.93,-274.63 257.93,-232.69 144.69,-174.18 82.96,-145.39"/>
<polygon fill="#b5d926" stroke="black" points="84.72,-142.35 74.17,-141.34 81.78,-148.71 84.72,-142.35"/>
</g>
<!-- load_constants&#45;&gt;tools_edit -->
<g id="edge15" class="edge">
<title>load_constants&#45;&gt;tools_edit</title><style>.edge>path:hover{stroke-width:8}</style>
<path fill="none" stroke="black" d="M620.93,-423.25C611.31,-384.39 597.75,-373.23 606.93,-334.25 622.23,-269.35 645.29,-260.22 673.93,-200"/>
<path fill="none" stroke="black" d="M487.93,-680.88C463.13,-660.64 622.65,-457.23 620.93,-425.25"/>
<path fill="none" stroke="black" d="M673.93,-198C676.98,-180.45 688.72,-164.92 701.02,-152.98"/>
<polygon fill="#b5d926" stroke="black" points="703.32,-155.62 708.4,-146.32 698.63,-150.43 703.32,-155.62"/>
</g>
<!-- load_constants&#45;&gt;tools_write_code -->
<g id="edge16" class="edge">
<title>load_constants&#45;&gt;tools_write_code</title><style>.edge>path:hover{stroke-width:8}</style>
<path fill="none" stroke="black" d="M620.93,-423.25C640.61,-305.07 727.5,-315.13 829.93,-253 880.83,-222.13 984.08,-250.73 952.93,-200"/>
<path fill="none" stroke="black" d="M952.93,-198C949.55,-193.66 894.59,-167.06 854.3,-147.93"/>
<polygon fill="#b5d926" stroke="black" points="855.8,-144.77 845.27,-143.66 852.81,-151.1 855.8,-144.77"/>
</g>
<!-- main&#45;&gt;utils_agent_display_web_with_prompt -->
<g id="edge17" class="edge">
<title>main&#45;&gt;utils_agent_display_web_with_prompt</title><style>.edge>path:hover{stroke-width:8}</style>
<path fill="none" stroke="black" d="M1125.85,-247.85C1108,-221.41 1080.86,-181.21 1063.01,-154.77"/>
<polygon fill="blue" stroke="black" points="1122.84,-249.65 1131.34,-255.98 1128.65,-245.73 1122.84,-249.65"/>
<polygon fill="blue" stroke="black" points="1066.01,-152.96 1057.51,-146.63 1060.21,-156.87 1066.01,-152.96"/>
</g>
<!-- tools -->
<g id="node5" class="node">
<title>tools</title><style>.edge>path:hover{stroke-width:8}</style>
<polygon fill="blue" stroke="black" points="539.93,-551.25 485.93,-551.25 485.93,-515.25 539.93,-515.25 539.93,-551.25"/>
<text text-anchor="middle" x="512.93" y="-529.75" font-family="Helvetica,sans-Serif" font-size="10.00" fill="white">tools</text>
</g>
<!-- tools&#45;&gt;main -->
<g id="edge18" class="edge">
<title>tools&#45;&gt;main</title><style>.edge>path:hover{stroke-width:8}</style>
<path fill="none" stroke="black" d="M540.29,-532.86C619.97,-533.53 856.96,-527.71 1026.93,-442.25 1068.5,-421.35 1076.18,-408.32 1102.93,-370.25 1117.11,-350.08 1127.98,-324.22 1134.95,-304.8"/>
<polygon fill="blue" stroke="black" points="1138.26,-305.94 1138.2,-295.35 1131.64,-303.67 1138.26,-305.94"/>
</g>
<!-- tools&#45;&gt;main_py -->
<g id="edge19" class="edge">
<title>tools&#45;&gt;main_py</title><style>.edge>path:hover{stroke-width:8}</style>
<path fill="none" stroke="black" d="M485.75,-525.04C444.77,-512.34 371.93,-481.8 371.93,-425.25 371.93,-425.25 371.93,-425.25 371.93,-351.25 371.93,-269.61 368.96,-229.03 302.93,-181 235.9,-132.23 180.39,-201.72 119.93,-145 95.8,-122.36 122.72,-97.91 100.93,-73"/>
</g>
<!-- tools&#45;&gt;utils_output_manager -->
<g id="edge20" class="edge">
<title>tools&#45;&gt;utils_output_manager</title><style>.edge>path:hover{stroke-width:8}</style>
<path fill="none" stroke="black" d="M540.11,-525.96C614.33,-508.77 821.52,-460.78 920.7,-437.82"/>
<polygon fill="blue" stroke="black" points="921.24,-441.28 930.19,-435.62 919.66,-434.46 921.24,-441.28"/>
</g>
<!-- tools_base -->
<g id="node6" class="node">
<title>tools_base</title><style>.edge>path:hover{stroke-width:8}</style>
<polygon fill="blue" stroke="black" points="537.43,-217 476.43,-217 476.43,-181 537.43,-181 537.43,-217"/>
<text text-anchor="middle" x="506.93" y="-195.5" font-family="Helvetica,sans-Serif" font-size="10.00" fill="white">tools.base</text>
</g>
<!-- tools_base&#45;&gt;tools -->
<g id="edge21" class="edge">
<title>tools_base&#45;&gt;tools</title><style>.edge>path:hover{stroke-width:8}</style>
<path fill="none" stroke="black" d="M508.37,-217.3C509.12,-229.64 509.62,-246.91 508.22,-263.41"/>
<polygon fill="blue" stroke="black" points="504.77,-262.79 507.11,-273.12 511.72,-263.59 504.77,-262.79"/>
</g>
<!-- tools_base&#45;&gt;tools_bash -->
<g id="edge22" class="edge">
<title>tools_base&#45;&gt;tools_bash</title><style>.edge>path:hover{stroke-width:8}</style>
<path fill="none" stroke="black" d="M497.49,-217.11C483.25,-244.55 457.93,-300.47 457.93,-351.25 457.93,-479.25 457.93,-479.25 457.93,-479.25 457.93,-512.26 457.93,-550.18 457.93,-575.51"/>
<polygon fill="blue" stroke="black" points="454.43,-575.35 457.93,-585.35 461.43,-575.35 454.43,-575.35"/>
</g>
<!-- tools_base&#45;&gt;tools_collection -->
<g id="edge23" class="edge">
<title>tools_base&#45;&gt;tools_collection</title><style>.edge>path:hover{stroke-width:8}</style>
<path fill="none" stroke="black" d="M476.27,-185.23C471.53,-183.6 466.65,-182.12 461.93,-181 313.22,-145.7 270.76,-169.72 119.93,-145 108.23,-143.08 95.61,-140.48 84.09,-137.89"/>
<polygon fill="blue" stroke="black" points="85.02,-134.51 74.49,-135.67 83.44,-141.33 85.02,-134.51"/>
</g>
<!-- tools_create_picture -->
<g id="node9" class="node">
<title>tools_create_picture</title><style>.edge>path:hover{stroke-width:8}</style>
<polygon fill="blue" stroke="black" points="304.68,-145 227.18,-145 227.18,-109 304.68,-109 304.68,-145"/>
<text text-anchor="middle" x="265.93" y="-129.5" font-family="Helvetica,sans-Serif" font-size="10.00" fill="white">tools.</text>
<text text-anchor="middle" x="265.93" y="-117.5" font-family="Helvetica,sans-Serif" font-size="10.00" fill="white">create_picture</text>
</g>
<!-- tools_base&#45;&gt;tools_create_picture -->
<g id="edge24" class="edge">
<title>tools_base&#45;&gt;tools_create_picture</title><style>.edge>path:hover{stroke-width:8}</style>
<path fill="none" stroke="black" d="M476.12,-185.79C471.4,-184.09 466.56,-182.43 461.93,-181 400.54,-162.02 380.8,-164.05 315.93,-145.42"/>
<polygon fill="blue" stroke="black" points="317.15,-142.13 306.57,-142.67 315.18,-148.85 317.15,-142.13"/>
</g>
<!-- tools_base&#45;&gt;tools_edit -->
<g id="edge25" class="edge">
<title>tools_base&#45;&gt;tools_edit</title><style>.edge>path:hover{stroke-width:8}</style>
<path fill="none" stroke="black" d="M537.68,-191.02C573.57,-182.52 634.78,-166.98 695.35,-145.29"/>
<polygon fill="blue" stroke="black" points="696.23,-148.69 704.42,-141.98 693.83,-142.12 696.23,-148.69"/>
</g>
<!-- tools_base&#45;&gt;tools_envsetup -->
<g id="edge26" class="edge">
<title>tools_base&#45;&gt;tools_envsetup</title><style>.edge>path:hover{stroke-width:8}</style>
<path fill="none" stroke="black" d="M476.23,-185.41C471.5,-183.75 466.62,-182.22 461.93,-181 359.25,-154.36 326.51,-169.99 220.02,-145.23"/>
<polygon fill="blue" stroke="black" points="221.14,-141.9 210.6,-142.97 219.51,-148.7 221.14,-141.9"/>
</g>
<!-- tools_expert -->
<g id="node12" class="node">
<title>tools_expert</title><style>.edge>path:hover{stroke-width:8}</style>
<polygon fill="blue" stroke="black" points="389.43,-145 322.43,-145 322.43,-109 389.43,-109 389.43,-145"/>
<text text-anchor="middle" x="355.93" y="-123.5" font-family="Helvetica,sans-Serif" font-size="10.00" fill="white">tools.expert</text>
</g>
<!-- tools_base&#45;&gt;tools_expert -->
<g id="edge27" class="edge">
<title>tools_base&#45;&gt;tools_expert</title><style>.edge>path:hover{stroke-width:8}</style>
<path fill="none" stroke="black" d="M476.01,-183.67C454.14,-173.53 424.49,-159.78 400.13,-148.49"/>
<polygon fill="blue" stroke="black" points="401.62,-145.32 391.08,-144.29 398.68,-151.67 401.62,-145.32"/>
</g>
<!-- tools_gotourl_reports -->
<g id="node13" class="node">
<title>tools_gotourl_reports</title><style>.edge>path:hover{stroke-width:8}</style>
<polygon fill="blue" stroke="black" points="488.18,-145 407.68,-145 407.68,-109 488.18,-109 488.18,-145"/>
<text text-anchor="middle" x="447.93" y="-129.5" font-family="Helvetica,sans-Serif" font-size="10.00" fill="white">tools.</text>
<text text-anchor="middle" x="447.93" y="-117.5" font-family="Helvetica,sans-Serif" font-size="10.00" fill="white">gotourl_reports</text>
</g>
<!-- tools_base&#45;&gt;tools_gotourl_reports -->
<g id="edge28" class="edge">
<title>tools_base&#45;&gt;tools_gotourl_reports</title><style>.edge>path:hover{stroke-width:8}</style>
<path fill="none" stroke="black" d="M492.35,-180.7C485.49,-172.56 477.17,-162.69 469.6,-153.7"/>
<polygon fill="blue" stroke="black" points="472.45,-151.65 463.33,-146.26 467.09,-156.16 472.45,-151.65"/>
</g>
<!-- tools_playwright -->
<g id="node14" class="node">
<title>tools_playwright</title><style>.edge>path:hover{stroke-width:8}</style>
<polygon fill="blue" stroke="black" points="566.06,-145 505.81,-145 505.81,-109 566.06,-109 566.06,-145"/>
<text text-anchor="middle" x="535.93" y="-129.5" font-family="Helvetica,sans-Serif" font-size="10.00" fill="white">tools.</text>
<text text-anchor="middle" x="535.93" y="-117.5" font-family="Helvetica,sans-Serif" font-size="10.00" fill="white">playwright</text>
</g>
<!-- tools_base&#45;&gt;tools_playwright -->
<g id="edge29" class="edge">
<title>tools_base&#45;&gt;tools_playwright</title><style>.edge>path:hover{stroke-width:8}</style>
<path fill="none" stroke="black" d="M514.1,-180.7C517.23,-173.15 520.97,-164.12 524.47,-155.68"/>
<polygon fill="blue" stroke="black" points="527.67,-157.08 528.27,-146.5 521.21,-154.4 527.67,-157.08"/>
</g>
<!-- tools_windows_navigation -->
<g id="node16" class="node">
<title>tools_windows_navigation</title><style>.edge>path:hover{stroke-width:8}</style>
<polygon fill="blue" stroke="black" points="687.81,-145 584.06,-145 584.06,-109 687.81,-109 687.81,-145"/>
<text text-anchor="middle" x="635.93" y="-129.5" font-family="Helvetica,sans-Serif" font-size="10.00" fill="white">tools.</text>
<text text-anchor="middle" x="635.93" y="-117.5" font-family="Helvetica,sans-Serif" font-size="10.00" fill="white">windows_navigation</text>
</g>
<!-- tools_base&#45;&gt;tools_windows_navigation -->
<g id="edge30" class="edge">
<title>tools_base&#45;&gt;tools_windows_navigation</title><style>.edge>path:hover{stroke-width:8}</style>
<path fill="none" stroke="black" d="M537.83,-181.23C554.61,-172.13 575.59,-160.74 593.84,-150.84"/>
<polygon fill="blue" stroke="black" points="595.49,-153.93 602.61,-146.08 592.15,-147.78 595.49,-153.93"/>
</g>
<!-- tools_base&#45;&gt;tools_write_code -->
<g id="edge31" class="edge">
<title>tools_base&#45;&gt;tools_write_code</title><style>.edge>path:hover{stroke-width:8}</style>
<path fill="none" stroke="black" d="M537.9,-193.79C585.77,-186.85 680.63,-171.4 769.16,-145.21"/>
<polygon fill="blue" stroke="black" points="769.91,-148.64 778.47,-142.4 767.89,-141.94 769.91,-148.64"/>
</g>
<!-- tools_base&#45;&gt;utils_output_manager -->
<g id="edge32" class="edge">
<title>tools_base&#45;&gt;utils_output_manager</title><style>.edge>path:hover{stroke-width:8}</style>
<path fill="none" stroke="black" d="M537.84,-217.12C555.44,-227.14 577.74,-240.28 596.93,-253 625.07,-271.65 628.42,-281.87 657.93,-298.25 745.69,-346.99 856.38,-386.04 921.05,-406.83"/>
<polygon fill="blue" stroke="black" points="919.77,-410.09 930.36,-409.79 921.89,-403.42 919.77,-410.09"/>
</g>
<!-- tools_bash&#45;&gt;tools -->
<g id="edge33" class="edge">
<title>tools_bash&#45;&gt;tools</title><style>.edge>path:hover{stroke-width:8}</style>
<path fill="none" stroke="black" d="M471.53,-586.95C477.86,-578.9 485.52,-569.15 492.52,-560.24"/>
<polygon fill="blue" stroke="black" points="495.13,-562.57 498.56,-552.55 489.63,-558.25 495.13,-562.57"/>
</g>
<!-- tools_collection&#45;&gt;tools -->
<g id="edge34" class="edge">
<title>tools_collection&#45;&gt;tools</title><style>.edge>path:hover{stroke-width:8}</style>
<path fill="none" stroke="black" d="M72.82,-140.26C77.49,-142 82.31,-143.65 86.93,-145 167.33,-168.5 208.24,-126.6 271.93,-181 333.17,-233.3 333.93,-270.72 333.93,-351.25 333.93,-425.25 333.93,-425.25 333.93,-425.25 333.93,-451.52 338.56,-461.53 357.93,-479.25 390.36,-508.92 440.11,-522.08 474.47,-527.86"/>
<polygon fill="blue" stroke="black" points="473.57,-531.26 483.98,-529.32 474.63,-524.34 473.57,-531.26"/>
</g>
<!-- tools_create_picture&#45;&gt;tools -->
<g id="edge35" class="edge">
<title>tools_create_picture&#45;&gt;tools</title><style>.edge>path:hover{stroke-width:8}</style>
<path fill="none" stroke="black" d="M582.93,-425.25C590.26,-461.14 559.06,-495.22 535.96,-514.91"/>
<path fill="none" stroke="black" d="M506.93,-276.63C500.61,-319.12 509.83,-332.84 530.93,-370.25 547.14,-399 575,-391.22 582.93,-423.25"/>
<path fill="none" stroke="black" d="M447.93,-200C462.8,-215.03 510.05,-253.72 506.93,-274.63"/>
<path fill="none" stroke="black" d="M304.94,-141.9C307.98,-142.96 311,-144 313.93,-145 370.77,-164.36 399.24,-153.97 439.67,-190.13"/>
<polygon fill="blue" stroke="black" points="437.18,-192.59 446.84,-196.96 442.01,-187.52 437.18,-192.59"/>
</g>
<!-- tools_edit&#45;&gt;tools -->
<g id="edge36" class="edge">
<title>tools_edit&#45;&gt;tools</title><style>.edge>path:hover{stroke-width:8}</style>
<path fill="none" stroke="black" d="M705.9,-144.3C684.59,-157.19 656.65,-175.32 642.79,-189.42"/>
<polygon fill="blue" stroke="black" points="640.39,-186.82 636.88,-196.82 645.85,-191.19 640.39,-186.82"/>
</g>
<!-- tools_envsetup&#45;&gt;tools -->
<g id="edge37" class="edge">
<title>tools_envsetup&#45;&gt;tools</title><style>.edge>path:hover{stroke-width:8}</style>
<path fill="none" stroke="black" d="M209.19,-142.4C212.13,-143.32 215.07,-144.2 217.93,-145 291.48,-165.55 330.87,-128.09 385.93,-181 416.91,-210.76 409.93,-231.67 409.93,-274.63 409.93,-425.25 409.93,-425.25 409.93,-425.25 409.93,-464.52 446.38,-494.93 475.91,-513.13"/>
<polygon fill="blue" stroke="black" points="473.9,-516.01 484.3,-518.06 477.45,-509.98 473.9,-516.01"/>
</g>
<!-- tools_expert&#45;&gt;tools -->
<g id="edge38" class="edge">
<title>tools_expert&#45;&gt;tools</title><style>.edge>path:hover{stroke-width:8}</style>
<path fill="none" stroke="black" d="M382.5,-145.22C399.3,-156.71 421.28,-172.85 439.91,-190.22"/>
<polygon fill="blue" stroke="black" points="437.23,-192.5 446.85,-196.95 442.1,-187.47 437.23,-192.5"/>
</g>
<!-- tools_gotourl_reports&#45;&gt;tools -->
<g id="edge39" class="edge">
<title>tools_gotourl_reports&#45;&gt;tools</title><style>.edge>path:hover{stroke-width:8}</style>
<path fill="none" stroke="black" d="M441.91,-145.22C438.44,-157.94 435.81,-175.29 441.67,-188.68"/>
<polygon fill="blue" stroke="black" points="438.61,-190.39 447.09,-196.74 444.42,-186.49 438.61,-190.39"/>
</g>
<!-- tools_playwright&#45;&gt;tools -->
<g id="edge40" class="edge">
<title>tools_playwright&#45;&gt;tools</title><style>.edge>path:hover{stroke-width:8}</style>
<path fill="none" stroke="black" d="M635.93,-200C603.44,-257.72 516.69,-209.11 506.93,-274.63"/>
<path fill="none" stroke="black" d="M566.35,-141.63C591.76,-153.79 625.27,-171.89 634.55,-186.62"/>
<polygon fill="blue" stroke="black" points="631.07,-186.99 635.75,-196.5 638.01,-186.15 631.07,-186.99"/>
</g>
<!-- tools_run -->
<g id="node15" class="node">
<title>tools_run</title><style>.edge>path:hover{stroke-width:8}</style>
<ellipse fill="#537bb6" stroke="black" cx="733.93" cy="-199" rx="32.17" ry="18"/>
<text text-anchor="middle" x="733.93" y="-195.5" font-family="Helvetica,sans-Serif" font-size="10.00" fill="#ffffff">tools.run</text>
</g>
<!-- tools_run&#45;&gt;tools_edit -->
<g id="edge41" class="edge">
<title>tools_run&#45;&gt;tools_edit</title><style>.edge>path:hover{stroke-width:8}</style>
<path fill="none" stroke="black" d="M733.93,-180.7C733.93,-173.41 733.93,-164.73 733.93,-156.54"/>
<polygon fill="#537bb6" stroke="black" points="737.43,-156.62 733.93,-146.62 730.43,-156.62 737.43,-156.62"/>
</g>
<!-- tools_windows_navigation&#45;&gt;tools -->
<g id="edge42" class="edge">
<title>tools_windows_navigation&#45;&gt;tools</title><style>.edge>path:hover{stroke-width:8}</style>
<path fill="none" stroke="black" d="M640.42,-145.3C642.71,-157.21 644.26,-173.38 640.2,-187.61"/>
<polygon fill="blue" stroke="black" points="637.07,-186.02 636.51,-196.6 643.55,-188.68 637.07,-186.02"/>
</g>
<!-- tools_write_code&#45;&gt;tools -->
<g id="edge43" class="edge">
<title>tools_write_code&#45;&gt;tools</title><style>.edge>path:hover{stroke-width:8}</style>
<path fill="none" stroke="black" d="M808.94,-145.35C804.68,-165.15 795.02,-197.33 774.93,-217 743.56,-247.72 719.27,-228.36 682.93,-253 613.57,-300.04 579.24,-332.72 582.26,-411.78"/>
<polygon fill="blue" stroke="black" points="578.76,-411.97 582.84,-421.74 585.75,-411.56 578.76,-411.97"/>
</g>
<!-- utils -->
<g id="node18" class="node">
<title>utils</title><style>.edge>path:hover{stroke-width:8}</style>
<polygon fill="blue" stroke="black" points="979.93,-370.25 925.93,-370.25 925.93,-334.25 979.93,-334.25 979.93,-370.25"/>
<text text-anchor="middle" x="952.93" y="-348.75" font-family="Helvetica,sans-Serif" font-size="10.00" fill="white">utils</text>
</g>
<!-- utils&#45;&gt;main -->
<g id="edge44" class="edge">
<title>utils&#45;&gt;main</title><style>.edge>path:hover{stroke-width:8}</style>
<path fill="none" stroke="black" d="M980.22,-342.94C1010.63,-333.36 1061.06,-316.58 1102.93,-298.25 1104.22,-297.69 1105.52,-297.11 1106.83,-296.5"/>
<polygon fill="blue" stroke="black" points="1108.04,-299.8 1115.5,-292.28 1104.97,-293.51 1108.04,-299.8"/>
</g>
<!-- utils&#45;&gt;main_py -->
<g id="edge45" class="edge">
<title>utils&#45;&gt;main_py</title><style>.edge>path:hover{stroke-width:8}</style>
<path fill="none" stroke="black" d="M1088.93,-274.63C1093.95,-210.75 914.04,-128.28 852.93,-109 773.16,-83.83 155.95,-136.01 100.93,-73"/>
<path fill="none" stroke="black" d="M980.33,-348.38C1019.54,-342.57 1087.16,-325.48 1088.93,-276.63"/>
</g>
<!-- utils&#45;&gt;tools_base -->
<g id="edge46" class="edge">
<title>utils&#45;&gt;tools_base</title><style>.edge>path:hover{stroke-width:8}</style>
<path fill="none" stroke="black" d="M925.72,-339.57C921.14,-337.72 916.42,-335.89 911.93,-334.25 861.59,-315.98 847.85,-314.85 796.93,-298.25 708.09,-269.3 604.52,-233.78 548.34,-214.37"/>
<polygon fill="blue" stroke="black" points="549.78,-211.16 539.19,-211.2 547.49,-217.78 549.78,-211.16"/>
</g>
<!-- utils&#45;&gt;tools_bash -->
<g id="edge47" class="edge">
<title>utils&#45;&gt;tools_bash</title><style>.edge>path:hover{stroke-width:8}</style>
<path fill="none" stroke="black" d="M925.69,-367.07C843.43,-408.78 597.22,-533.63 499.03,-583.42"/>
<polygon fill="blue" stroke="black" points="497.58,-580.22 490.25,-587.87 500.75,-586.47 497.58,-580.22"/>
</g>
<!-- utils&#45;&gt;tools_edit -->
<g id="edge48" class="edge">
<title>utils&#45;&gt;tools_edit</title><style>.edge>path:hover{stroke-width:8}</style>
<path fill="none" stroke="black" d="M831.93,-198C817.66,-175.35 793.15,-157.84 772.21,-146"/>
<polygon fill="blue" stroke="black" points="774.08,-143.03 763.61,-141.37 770.75,-149.19 774.08,-143.03"/>
<path fill="none" stroke="black" d="M925.73,-339.97C889.93,-325.06 831.35,-300.41 829.93,-298.25 805.92,-261.77 855.21,-236.96 831.93,-200"/>
</g>
<!-- utils&#45;&gt;tools_write_code -->
<g id="edge49" class="edge">
<title>utils&#45;&gt;tools_write_code</title><style>.edge>path:hover{stroke-width:8}</style>
<path fill="none" stroke="black" d="M958.24,-333.91C966.25,-304.17 977.99,-242.54 952.93,-200"/>
</g>
<!-- utils_agent_display&#45;&gt;tools_base -->
<g id="edge50" class="edge">
<title>utils_agent_display&#45;&gt;tools_base</title><style>.edge>path:hover{stroke-width:8}</style>
<path fill="none" stroke="black" d="M900.93,-532.25C853.46,-368.5 722.54,-413.55 596.93,-298.25 571.84,-275.23 545.85,-246.19 528.29,-225.67"/>
<polygon fill="#bd19e6" stroke="black" points="531.19,-223.69 522.05,-218.33 525.85,-228.21 531.19,-223.69"/>
<path fill="none" stroke="black" d="M903.83,-740.13C903.6,-699.47 902.9,-609.8 900.93,-534.25"/>
</g>
<!-- utils_agent_display&#45;&gt;tools_bash -->
<g id="edge51" class="edge">
<title>utils_agent_display&#45;&gt;tools_bash</title><style>.edge>path:hover{stroke-width:8}</style>
<path fill="none" stroke="black" d="M863.17,-747.89C778.59,-718.33 584.8,-650.59 499.51,-620.79"/>
<polygon fill="#bd19e6" stroke="black" points="500.73,-617.5 490.13,-617.51 498.42,-624.11 500.73,-617.5"/>
</g>
<!-- utils_agent_display&#45;&gt;utils -->
<g id="edge52" class="edge">
<title>utils_agent_display&#45;&gt;utils</title><style>.edge>path:hover{stroke-width:8}</style>
<path fill="none" stroke="black" d="M900.93,-532.25C885.59,-478.13 915.06,-414.97 935.56,-380.01"/>
<polygon fill="#bd19e6" stroke="black" points="938.34,-382.17 940.53,-371.81 932.36,-378.54 938.34,-382.17"/>
</g>
<!-- utils_agent_display&#45;&gt;utils_agent_display_web -->
<g id="edge53" class="edge">
<title>utils_agent_display&#45;&gt;utils_agent_display_web</title><style>.edge>path:hover{stroke-width:8}</style>
<path fill="none" stroke="black" d="M945.14,-748.24C982.67,-735.58 1038.52,-716.75 1080.63,-702.55"/>
<polygon fill="#bd19e6" stroke="black" points="1081.5,-705.94 1089.86,-699.43 1079.27,-699.31 1081.5,-705.94"/>
</g>
<!-- utils_agent_display&#45;&gt;utils_output_manager -->
<g id="edge54" class="edge">
<title>utils_agent_display&#45;&gt;utils_output_manager</title><style>.edge>path:hover{stroke-width:8}</style>
<path fill="none" stroke="black" d="M900.93,-532.25C896.93,-499.8 921.12,-469.83 942.9,-449.92"/>
<polygon fill="#bd19e6" stroke="black" points="944.99,-452.74 950.23,-443.53 940.39,-447.46 944.99,-452.74"/>
</g>
<!-- utils_agent_display_web&#45;&gt;utils_agent_display_web_with_prompt -->
<g id="edge55" class="edge">
<title>utils_agent_display_web&#45;&gt;utils_agent_display_web_with_prompt</title><style>.edge>path:hover{stroke-width:8}</style>
<path fill="none" stroke="black" d="M1181.64,-663.56C1204.37,-651.48 1229.19,-632.73 1236.93,-606.25"/>
<path fill="none" stroke="black" d="M1236.93,-604.25C1252.52,-550.93 1236.93,-534.81 1236.93,-479.25 1236.93,-479.25 1236.93,-479.25 1236.93,-274.63 1236.93,-210.99 1169.49,-171.28 1114.55,-149.49"/>
<polygon fill="#9246a4" stroke="black" points="1116.11,-146.34 1105.52,-146.04 1113.61,-152.88 1116.11,-146.34"/>
</g>
<!-- utils_agent_display_web_with_prompt&#45;&gt;main_py -->
<g id="edge57" class="edge">
<title>utils_agent_display_web_with_prompt&#45;&gt;main_py</title><style>.edge>path:hover{stroke-width:8}</style>
<path fill="none" stroke="black" d="M965.76,-116.58C940.3,-113.81 911.95,-110.99 885.93,-109 842.4,-105.68 129.65,-105.89 100.93,-73"/>
</g>
<!-- utils_build123d -->
<g id="node22" class="node">
<title>utils_build123d</title><style>.edge>path:hover{stroke-width:8}</style>
<ellipse fill="#a253b6" stroke="black" cx="1020.93" cy="-275.63" rx="40.48" ry="22.63"/>
<text text-anchor="middle" x="1020.93" y="-278.13" font-family="Helvetica,sans-Serif" font-size="10.00" fill="#ffffff">utils.</text>
<text text-anchor="middle" x="1020.93" y="-266.13" font-family="Helvetica,sans-Serif" font-size="10.00" fill="#ffffff">build123d</text>
</g>
<!-- utils_build123d&#45;&gt;tools_write_code -->
<g id="edge58" class="edge">
<title>utils_build123d&#45;&gt;tools_write_code</title><style>.edge>path:hover{stroke-width:8}</style>
<path fill="none" stroke="black" d="M999.69,-255.87C984.83,-241.77 965.48,-221.29 952.93,-200"/>
</g>
<!-- utils_file_logger&#45;&gt;tools_edit -->
<g id="edge59" class="edge">
<title>utils_file_logger&#45;&gt;tools_edit</title><style>.edge>path:hover{stroke-width:8}</style>
<path fill="none" stroke="black" d="M867.61,-253.93C857.43,-239.06 843.57,-218.47 831.93,-200"/>
</g>
<!-- utils_file_logger&#45;&gt;tools_write_code -->
<g id="edge60" class="edge">
<title>utils_file_logger&#45;&gt;tools_write_code</title><style>.edge>path:hover{stroke-width:8}</style>
<path fill="none" stroke="black" d="M912.94,-260.1C938.01,-246.2 967,-223.88 952.93,-200"/>
</g>
<!-- utils_output_manager&#45;&gt;main -->
<g id="edge61" class="edge">
<title>utils_output_manager&#45;&gt;main</title><style>.edge>path:hover{stroke-width:8}</style>
<path fill="none" stroke="black" d="M1088.93,-351.25C1101.37,-335.75 1114.61,-317.84 1124.98,-303.45"/>
<polygon fill="blue" stroke="black" points="1127.8,-305.52 1130.77,-295.35 1122.11,-301.45 1127.8,-305.52"/>
</g>
<!-- utils_output_manager&#45;&gt;main_py -->
<g id="edge62" class="edge">
<title>utils_output_manager&#45;&gt;main_py</title><style>.edge>path:hover{stroke-width:8}</style>
<path fill="none" stroke="black" d="M1017.7,-405.78C1041.61,-394.08 1070.26,-376.54 1088.93,-353.25"/>
<path fill="none" stroke="black" d="M1088.93,-351.25C1109.69,-325.38 1087.73,-309.77 1088.93,-276.63"/>
</g>
<!-- utils_output_manager&#45;&gt;utils -->
<g id="edge63" class="edge">
<title>utils_output_manager&#45;&gt;utils</title><style>.edge>path:hover{stroke-width:8}</style>
<path fill="none" stroke="black" d="M969.49,-405.95C967.15,-398.49 964.35,-389.58 961.72,-381.22"/>
<polygon fill="blue" stroke="black" points="965.1,-380.29 958.76,-371.8 958.42,-382.39 965.1,-380.29"/>
</g>
</g>
</svg>
