<?xml version="1.0" encoding="UTF-8" standalone="no"?>
<!DOCTYPE svg PUBLIC "-//W3C//DTD SVG 1.1//EN"
 "http://www.w3.org/Graphics/SVG/1.1/DTD/svg11.dtd">
<!-- Generated by graphviz version 12.2.0 (20241103.1931)
 -->
<!-- Title: G Pages: 1 -->
<svg width="480pt" height="750pt"
 viewBox="0.00 0.00 480.18 749.51" xmlns="http://www.w3.org/2000/svg" xmlns:xlink="http://www.w3.org/1999/xlink">
<g id="graph0" class="graph" transform="scale(1 1) rotate(0) translate(4 745.51)">
<title>G</title><style>.edge>path:hover{stroke-width:8}</style>
<polygon fill="white" stroke="none" points="-4,4 -4,-745.51 476.18,-745.51 476.18,4 -4,4"/>
<!-- config -->
<g id="node1" class="node">
<title>config</title><style>.edge>path:hover{stroke-width:8}</style>
<ellipse fill="#f31616" stroke="black" cx="306" cy="-723.51" rx="27" ry="18"/>
<text text-anchor="middle" x="306" y="-720.01" font-family="Helvetica,sans-Serif" font-size="10.00" fill="#ffffff">config</text>
</g>
<!-- main -->
<g id="node2" class="node">
<title>main</title><style>.edge>path:hover{stroke-width:8}</style>
<polygon fill="blue" stroke="black" points="305,-145 251,-145 251,-109 305,-109 305,-145"/>
<text text-anchor="middle" x="278" y="-123.5" font-family="Helvetica,sans-Serif" font-size="10.00" fill="white">main</text>
</g>
<!-- config&#45;&gt;main -->
<g id="edge1" class="edge">
<title>config&#45;&gt;main</title><style>.edge>path:hover{stroke-width:8}</style>
<path fill="none" stroke="black" d="M306,-608.88C318.01,-564.12 315.29,-551.7 323,-506 336.51,-425.95 354,-407.18 354,-326 354,-326 354,-326 354,-270 354,-225.03 324.01,-180.52 301.71,-153.64"/>
<polygon fill="#f31616" stroke="black" points="304.64,-151.69 295.48,-146.38 299.33,-156.25 304.64,-151.69"/>
<path fill="none" stroke="black" d="M306,-668.51C297.85,-644.23 298.49,-635.37 306,-610.88"/>
</g>
<!-- utils_agent_display -->
<g id="node6" class="node">
<title>utils_agent_display</title><style>.edge>path:hover{stroke-width:8}</style>
<ellipse fill="#7f19e6" stroke="black" cx="224" cy="-609.88" rx="53.74" ry="22.63"/>
<text text-anchor="middle" x="224" y="-612.38" font-family="Helvetica,sans-Serif" font-size="10.00" fill="#ffffff">utils.</text>
<text text-anchor="middle" x="224" y="-600.38" font-family="Helvetica,sans-Serif" font-size="10.00" fill="#ffffff">agent_display</text>
</g>
<!-- config&#45;&gt;utils_agent_display -->
<g id="edge2" class="edge">
<title>config&#45;&gt;utils_agent_display</title><style>.edge>path:hover{stroke-width:8}</style>
<path fill="none" stroke="black" d="M306,-668.51C300.6,-652.43 287.42,-640.24 273.17,-631.3"/>
<polygon fill="#f31616" stroke="black" points="274.95,-628.29 264.53,-626.38 271.48,-634.37 274.95,-628.29"/>
</g>
<!-- utils_agent_display_web -->
<g id="node7" class="node">
<title>utils_agent_display_web</title><style>.edge>path:hover{stroke-width:8}</style>
<ellipse fill="#753ab0" stroke="black" cx="402" cy="-528.63" rx="70.18" ry="22.63"/>
<text text-anchor="middle" x="402" y="-531.13" font-family="Helvetica,sans-Serif" font-size="10.00" fill="#ffffff">utils.</text>
<text text-anchor="middle" x="402" y="-519.13" font-family="Helvetica,sans-Serif" font-size="10.00" fill="#ffffff">agent_display_web</text>
</g>
<!-- config&#45;&gt;utils_agent_display_web -->
<g id="edge3" class="edge">
<title>config&#45;&gt;utils_agent_display_web</title><style>.edge>path:hover{stroke-width:8}</style>
<path fill="none" stroke="black" d="M306,-608.88C312.43,-584.93 332.37,-566.53 352.43,-553.52"/>
<polygon fill="#f31616" stroke="black" points="354.21,-556.53 360.94,-548.35 350.57,-550.55 354.21,-556.53"/>
</g>
<!-- utils_agent_display_web_with_prompt -->
<g id="node8" class="node">
<title>utils_agent_display_web_with_prompt</title><style>.edge>path:hover{stroke-width:8}</style>
<polygon fill="blue" stroke="black" points="356.88,-36 199.12,-36 199.12,0 356.88,0 356.88,-36"/>
<text text-anchor="middle" x="278" y="-20.5" font-family="Helvetica,sans-Serif" font-size="10.00" fill="white">utils.</text>
<text text-anchor="middle" x="278" y="-8.5" font-family="Helvetica,sans-Serif" font-size="10.00" fill="white">agent_display_web_with_prompt</text>
</g>
<!-- config&#45;&gt;utils_agent_display_web_with_prompt -->
<g id="edge4" class="edge">
<title>config&#45;&gt;utils_agent_display_web_with_prompt</title><style>.edge>path:hover{stroke-width:8}</style>
<path fill="none" stroke="black" d="M306,-668.51C284.86,-605.56 206.15,-681.2 161,-632.51 67.04,-531.2 142.05,-460.16 109,-326"/>
<path fill="none" stroke="black" d="M308.65,-705.38C309.64,-694.79 309.76,-681.06 306,-669.51"/>
<path fill="none" stroke="black" d="M109,-325C91.86,-290.88 56.65,-317.28 31,-289 2.86,-257.98 0,-241.89 0,-200 0,-200 0,-200 0,-126 0,-84.98 106.74,-53.71 187.94,-35.86"/>
<polygon fill="#f31616" stroke="black" points="188.19,-39.39 197.23,-33.86 186.72,-32.54 188.19,-39.39"/>
</g>
<!-- utils_file_logger -->
<g id="node9" class="node">
<title>utils_file_logger</title><style>.edge>path:hover{stroke-width:8}</style>
<ellipse fill="#7f4cb3" stroke="black" cx="377" cy="-609.88" rx="42.6" ry="22.63"/>
<text text-anchor="middle" x="377" y="-612.38" font-family="Helvetica,sans-Serif" font-size="10.00" fill="#ffffff">utils.</text>
<text text-anchor="middle" x="377" y="-600.38" font-family="Helvetica,sans-Serif" font-size="10.00" fill="#ffffff">file_logger</text>
</g>
<!-- config&#45;&gt;utils_file_logger -->
<g id="edge5" class="edge">
<title>config&#45;&gt;utils_file_logger</title><style>.edge>path:hover{stroke-width:8}</style>
<path fill="none" stroke="black" d="M306,-668.51C300.07,-650.86 314.48,-637.29 331.83,-627.76"/>
<polygon fill="#f31616" stroke="black" points="332.9,-631.13 340.31,-623.55 329.79,-624.86 332.9,-631.13"/>
</g>
<!-- utils_output_manager -->
<g id="node10" class="node">
<title>utils_output_manager</title><style>.edge>path:hover{stroke-width:8}</style>
<polygon fill="blue" stroke="black" points="151.88,-289 66.12,-289 66.12,-253 151.88,-253 151.88,-289"/>
<text text-anchor="middle" x="109" y="-273.5" font-family="Helvetica,sans-Serif" font-size="10.00" fill="white">utils.</text>
<text text-anchor="middle" x="109" y="-261.5" font-family="Helvetica,sans-Serif" font-size="10.00" fill="white">output_manager</text>
</g>
<!-- config&#45;&gt;utils_output_manager -->
<g id="edge6" class="edge">
<title>config&#45;&gt;utils_output_manager</title><style>.edge>path:hover{stroke-width:8}</style>
<path fill="none" stroke="black" d="M109,-325C107.1,-317.29 106.48,-308.75 106.5,-300.82"/>
<polygon fill="#f31616" stroke="black" points="109.99,-301.07 106.86,-290.95 102.99,-300.81 109.99,-301.07"/>
</g>
<!-- main&#45;&gt;utils_agent_display_web_with_prompt -->
<g id="edge7" class="edge">
<title>main&#45;&gt;utils_agent_display_web_with_prompt</title><style>.edge>path:hover{stroke-width:8}</style>
<path fill="none" stroke="black" d="M278,-97.51C278,-82.09 278,-63.08 278,-47.64"/>
<polygon fill="blue" stroke="black" points="274.5,-97.3 278,-107.3 281.5,-97.3 274.5,-97.3"/>
<polygon fill="blue" stroke="black" points="281.5,-47.66 278,-37.66 274.5,-47.66 281.5,-47.66"/>
</g>
<!-- tools -->
<g id="node3" class="node">
<title>tools</title><style>.edge>path:hover{stroke-width:8}</style>
<polygon fill="blue" stroke="black" points="212,-398 158,-398 158,-362 212,-362 212,-398"/>
<text text-anchor="middle" x="185" y="-376.5" font-family="Helvetica,sans-Serif" font-size="10.00" fill="white">tools</text>
</g>
<!-- tools&#45;&gt;main -->
<g id="edge8" class="edge">
<title>tools&#45;&gt;main</title><style>.edge>path:hover{stroke-width:8}</style>
<path fill="none" stroke="black" d="M38,-198C54.27,-160.63 175.84,-140.42 239.45,-132.3"/>
<polygon fill="blue" stroke="black" points="239.62,-135.81 249.11,-131.11 238.76,-128.86 239.62,-135.81"/>
<path fill="none" stroke="black" d="M167.14,-361.59C155.19,-350.42 138.82,-336.01 123,-325 95.57,-305.91 76.98,-315.78 57,-289 32.82,-256.58 21.85,-237.08 38,-200"/>
</g>
<!-- tools&#45;&gt;utils_output_manager -->
<g id="edge9" class="edge">
<title>tools&#45;&gt;utils_output_manager</title><style>.edge>path:hover{stroke-width:8}</style>
<path fill="none" stroke="black" d="M188.84,-361.84C190.37,-350.98 190.63,-336.97 185,-326"/>
</g>
<!-- tools_base -->
<g id="node4" class="node">
<title>tools_base</title><style>.edge>path:hover{stroke-width:8}</style>
<polygon fill="blue" stroke="black" points="256.5,-470 195.5,-470 195.5,-434 256.5,-434 256.5,-470"/>
<text text-anchor="middle" x="226" y="-448.5" font-family="Helvetica,sans-Serif" font-size="10.00" fill="white">tools.base</text>
</g>
<!-- tools_base&#45;&gt;tools -->
<g id="edge10" class="edge">
<title>tools_base&#45;&gt;tools</title><style>.edge>path:hover{stroke-width:8}</style>
<path fill="none" stroke="black" d="M215.87,-433.7C211.3,-425.9 205.8,-416.51 200.71,-407.83"/>
<polygon fill="blue" stroke="black" points="203.86,-406.27 195.78,-399.41 197.82,-409.81 203.86,-406.27"/>
</g>
<!-- tools_base&#45;&gt;utils_output_manager -->
<g id="edge11" class="edge">
<title>tools_base&#45;&gt;utils_output_manager</title><style>.edge>path:hover{stroke-width:8}</style>
<path fill="none" stroke="black" d="M228.54,-433.75C230.5,-415.18 231.37,-385.17 221,-362 211.76,-341.35 195.34,-346.13 185,-326"/>
</g>
<!-- utils -->
<g id="node5" class="node">
<title>utils</title><style>.edge>path:hover{stroke-width:8}</style>
<polygon fill="blue" stroke="black" points="305,-217 251,-217 251,-181 305,-181 305,-217"/>
<text text-anchor="middle" x="278" y="-195.5" font-family="Helvetica,sans-Serif" font-size="10.00" fill="white">utils</text>
</g>
<!-- utils&#45;&gt;main -->
<g id="edge12" class="edge">
<title>utils&#45;&gt;main</title><style>.edge>path:hover{stroke-width:8}</style>
<path fill="none" stroke="black" d="M278,-180.7C278,-173.41 278,-164.73 278,-156.54"/>
<polygon fill="blue" stroke="black" points="281.5,-156.62 278,-146.62 274.5,-156.62 281.5,-156.62"/>
</g>
<!-- utils&#45;&gt;tools_base -->
<g id="edge13" class="edge">
<title>utils&#45;&gt;tools_base</title><style>.edge>path:hover{stroke-width:8}</style>
<path fill="none" stroke="black" d="M274.88,-217.27C268.58,-251.74 253.71,-331.46 239,-398 237.21,-406.08 235.13,-414.82 233.17,-422.82"/>
<polygon fill="blue" stroke="black" points="229.8,-421.84 230.78,-432.39 236.6,-423.54 229.8,-421.84"/>
</g>
<!-- utils_agent_display&#45;&gt;tools_base -->
<g id="edge14" class="edge">
<title>utils_agent_display&#45;&gt;tools_base</title><style>.edge>path:hover{stroke-width:8}</style>
<path fill="none" stroke="black" d="M226,-527.63C225.6,-512.5 225.56,-495.64 225.64,-481.78"/>
<polygon fill="#7f19e6" stroke="black" points="229.14,-482.04 225.72,-472.01 222.14,-481.98 229.14,-482.04"/>
</g>
<!-- utils_agent_display&#45;&gt;utils -->
<g id="edge15" class="edge">
<title>utils_agent_display&#45;&gt;utils</title><style>.edge>path:hover{stroke-width:8}</style>
<path fill="none" stroke="black" d="M226,-527.63C226.9,-496.46 255.63,-499.4 266,-470 292.84,-393.94 276.11,-369.6 279,-289 279.72,-268.9 279.45,-246.22 279.01,-228.79"/>
<polygon fill="#7f19e6" stroke="black" points="282.51,-228.81 278.72,-218.91 275.51,-229.01 282.51,-228.81"/>
</g>
<!-- utils_agent_display&#45;&gt;utils_agent_display_web -->
<g id="edge16" class="edge">
<title>utils_agent_display&#45;&gt;utils_agent_display_web</title><style>.edge>path:hover{stroke-width:8}</style>
<path fill="none" stroke="black" d="M260.02,-592.84C286.26,-581.16 322.16,-565.18 351.29,-552.21"/>
<polygon fill="#7f19e6" stroke="black" points="352.59,-555.46 360.3,-548.19 349.74,-549.06 352.59,-555.46"/>
</g>
<!-- utils_agent_display&#45;&gt;utils_output_manager -->
<g id="edge17" class="edge">
<title>utils_agent_display&#45;&gt;utils_output_manager</title><style>.edge>path:hover{stroke-width:8}</style>
<path fill="none" stroke="black" d="M225.16,-587.02C225.86,-571.1 226.52,-549.03 226,-529.63"/>
<path fill="none" stroke="black" d="M185,-325C179.52,-313.01 169.75,-303.26 159.01,-295.55"/>
<polygon fill="#7f19e6" stroke="black" points="160.95,-292.64 150.66,-290.12 157.14,-298.51 160.95,-292.64"/>
<path fill="none" stroke="black" d="M226,-527.63C225.17,-496.46 202.05,-496.73 186,-470 167.48,-439.15 157.46,-432.97 149,-398 145.24,-382.45 142.88,-376.78 149,-362 157.66,-341.09 194.41,-346.58 185,-326"/>
</g>
<!-- utils_agent_display_web&#45;&gt;utils_agent_display_web_with_prompt -->
<g id="edge18" class="edge">
<title>utils_agent_display_web&#45;&gt;utils_agent_display_web_with_prompt</title><style>.edge>path:hover{stroke-width:8}</style>
<path fill="none" stroke="black" d="M401.27,-505.77C400.39,-477.12 399,-425.3 399,-381 399,-381 399,-381 399,-126 399,-87.24 363.74,-59.15 331.28,-41.5"/>
<polygon fill="#753ab0" stroke="black" points="333.18,-38.54 322.69,-37.05 329.96,-44.76 333.18,-38.54"/>
</g>
<!-- utils_output_manager&#45;&gt;main -->
<g id="edge20" class="edge">
<title>utils_output_manager&#45;&gt;main</title><style>.edge>path:hover{stroke-width:8}</style>
<path fill="none" stroke="black" d="M70.63,-252.5C49.23,-239.99 28.6,-221.58 38,-200"/>
</g>
<!-- utils_output_manager&#45;&gt;utils -->
<g id="edge21" class="edge">
<title>utils_output_manager&#45;&gt;utils</title><style>.edge>path:hover{stroke-width:8}</style>
<path fill="none" stroke="black" d="M151.21,-252.52C178.53,-241.2 213.81,-226.59 240.21,-215.65"/>
<polygon fill="blue" stroke="black" points="241.28,-219 249.18,-211.94 238.6,-212.53 241.28,-219"/>
</g>
</g>
</svg>
